HIERARCHY
ROOT Hips
{
  OFFSET -187.679 86.5976 -156.378
  CHANNELS 6 Xposition Yposition Zposition Zrotation Xrotation Yrotation
  JOINT LeftUpLeg
  {
    OFFSET 8.64259 1.95398 -2.38835
    CHANNELS 3 Zrotation Xrotation Yrotation
    JOINT LeftLeg
    {
      OFFSET 43.7702 0 0
      CHANNELS 3 Zrotation Xrotation Yrotation
      JOINT LeftFoot
      {
        OFFSET 40.6238 0 0
        CHANNELS 3 Zrotation Xrotation Yrotation
        JOINT LeftToeBase
        {
          OFFSET 12.7242 0 0
          CHANNELS 3 Zrotation Xrotation Yrotation
          End Site
          {
            OFFSET 0 0 0
          }
        }
      }
    }
  }
  JOINT RightUpLeg
  {
    OFFSET -8.2249 1.95398 -2.59336
    CHANNELS 3 Zrotation Xrotation Yrotation
    JOINT RightLeg
    {
      OFFSET 43.5653 0 0
      CHANNELS 3 Zrotation Xrotation Yrotation
      JOINT RightFoot
      {
        OFFSET 40.6238 0 0
        CHANNELS 3 Zrotation Xrotation Yrotation
        JOINT RightToeBase
        {
          OFFSET 12.7242 0 0
          CHANNELS 3 Zrotation Xrotation Yrotation
          End Site
          {
            OFFSET 0 0 0
          }
        }
      }
    }
  }
  JOINT Spine
  {
    OFFSET 0.165834 0.87714 6.61349
    CHANNELS 3 Zrotation Xrotation Yrotation
    JOINT Spine1
    {
      OFFSET 7.38963 1.71661e-005 0
      CHANNELS 3 Zrotation Xrotation Yrotation
      JOINT Spine2
      {
        OFFSET 11.9445 1.14441e-005 0
        CHANNELS 3 Zrotation Xrotation Yrotation
        JOINT Spine3
        {
          OFFSET 14.7254 4.19617e-005 0
          CHANNELS 3 Zrotation Xrotation Yrotation
          JOINT Spine4
          {
            OFFSET 10.9679 0 0
            CHANNELS 3 Zrotation Xrotation Yrotation
            JOINT RightShoulder
            {
              OFFSET 2.46616 -1.6653 3.69651
              CHANNELS 3 Zrotation Xrotation Yrotation
              JOINT RightArm
              {
                OFFSET 13.0012 0 0
                CHANNELS 3 Zrotation Xrotation Yrotation
                JOINT RightForeArm
                {
                  OFFSET 28.7848 1.52588e-005 0
                  CHANNELS 3 Zrotation Xrotation Yrotation
                  JOINT RightHand
                  {
                    OFFSET 26.5688 1.52588e-005 0
                    CHANNELS 3 Zrotation Xrotation Yrotation
                    End Site
                    {
                      OFFSET 0 0 0
                    }
                  }
                }
              }
            }
            JOINT LeftShoulder
            {
              OFFSET 2.38034 -1.29275 -3.7523
              CHANNELS 3 Zrotation Xrotation Yrotation
              JOINT LeftArm
              {
                OFFSET 16.3182 6.10352e-005 0
                CHANNELS 3 Zrotation Xrotation Yrotation
                JOINT LeftForeArm
                {
                  OFFSET 27.0901 0 0
                  CHANNELS 3 Zrotation Xrotation Yrotation
                  JOINT LeftHand
                  {
                    OFFSET 24.5451 1.52588e-005 0
                    CHANNELS 3 Zrotation Xrotation Yrotation
                    End Site
                    {
                      OFFSET 0 0 0
                    }
                  }
                }
              }
            }
            JOINT Neck
            {
              OFFSET 5.0226 -0.0266342 0
              CHANNELS 3 Zrotation Xrotation Yrotation
              JOINT Head
              {
                OFFSET 6.69363 2.86102e-005 0
                CHANNELS 3 Zrotation Xrotation Yrotation
                End Site
                {
                  OFFSET 0 0 0
                }
              }
            }
          }
        }
      }
    }
  }
}
MOTION
Frames:	9
Frame Time:	0.0416667
5806.11 545.062 -5910.44 -99.5756 -49.6484 -98.5453 179.524 16.3815 142.216 -2.00942 27.7401 -8.23551 72.4283 -41.6782 -24.7227 8.13795 8.71937 -33.3466 173.019 5.27078 35.5738 -5.35992 1.43197 8.22761 60.9671 36.3874 22.8873 16.5206 -13.4135 26.7261 0.410219 7.60973 -89.7786 11.6532 0.919801 0.345409 -0.0174684 0.934103 0.304581 -22.5542 0.773472 0.605883 -2.54159 0.77346 0.605881 88.8582 -40.0493 -105.184 35.9785 -12.4204 -22.4689 -5.82358 -28.4467 -15.767 -10.3726 -0.828485 4.47137 -88.6925 -42.9532 79.4333 -34.9883 8.21617 -16.3795 -2.89314 2.16318 -14.1193 3.14236 0.0879985 -0.56069 15.8308 4.37759 -0.944591 -4.44437 4.53911 -2.20766 
5806.92 544.41 -5910.15 -99.2365 -49.5989 -98.1319 179.501 16.6177 142.315 -1.97661 28.008 -8.29409 72.5109 -41.6653 -24.7145 8.31934 8.75143 -33.3886 173.047 5.34197 35.8463 -5.40611 1.886 8.21296 60.508 36.2929 23.5806 16.3814 -13.2363 26.2025 0.38747 7.53961 -89.7963 11.7936 0.866448 0.314303 0.12292 0.87944 0.275852 -22.4137 0.731932 0.560177 -2.40105 0.731924 0.560175 88.7616 -40.0525 -105.349 36.1864 -12.0141 -22.007 -5.43948 -27.7557 -15.3692 -12.8058 -1.15942 5.68565 -88.615 -42.9234 79.5522 -35.0653 8.13871 -15.916 -3.11696 1.64755 -14.2281 3.89082 0.205527 0.978273 15.2708 4.80303 -1.13017 -3.30222 4.97939 -2.86453 
5806.27 544.531 -5910.51 -99.5331 -49.6256 -98.2995 179.578 16.5149 142.281 -1.33826 31.8752 -8.44266 75.6634 -40.926 -19.9206 9.36141 8.44403 -32.6144 173.083 5.07394 35.8618 -5.42351 1.76163 8.15066 61.4112 36.4007 22.7242 16.0094 -13.533 26.4834 0.383361 7.55432 -89.7907 11.7641 0.8608 0.326305 0.0934578 0.874324 0.288095 -22.4431 0.722929 0.569928 -2.43046 0.722928 0.569925 88.8115 -40.2661 -105.196 36.2594 -12.1397 -22.122 -5.57119 -28.1067 -15.3889 -11.8272 -1 4.99502 -88.5839 -42.9266 79.6034 -34.9908 7.97615 -15.9917 -3.03354 2.25999 -14.1316 4.60166 0.317582 2.34738 15.3223 4.6135 -1.21679 -3.43729 4.82269 -2.88978 
5806.77 544.52 -5910.33 -99.4867 -49.5202 -98.512 179.59 16.3241 142.139 -1.48741 31.2194 -8.3454 75.4593 -41.0566 -20.4548 9.08183 8.44977 -32.6636 173.075 5.37372 35.6819 -5.39907 1.55509 8.11658 60.9151 36.4202 23.0093 16.3635 -13.443 26.6358 0.385573 7.56408 -89.781 11.7445 0.86982 0.34483 0.0738018 0.88414 0.306205 -22.4627 0.725958 0.590304 -2.45009 0.725971 0.590311 88.9129 -40.201 -105.043 36.1435 -12.2256 -22.1867 -5.66104 -28.352 -15.4737 -11.0197 -0.911355 4.79649 -88.6276 -43.0515 79.5605 -35.1358 8.43163 -15.9479 -3.04515 1.73465 -14.4786 1.73615 0.107272 1.22955 15.4913 4.7129 -1.08468 -3.45246 4.88388 -2.82996 
5806.09 544.74 -5910.77 -99.7191 -49.4776 -98.5147 179.695 16.3466 142.392 -1.22734 32.135 -8.71931 75.944 -40.751 -19.0008 9.59716 8.6885 -33.1013 173.136 5.12553 35.7707 -5.36395 1.32006 8.16438 61.428 36.5329 22.4276 16.2786 -13.6532 27.0071 0.389637 7.57461 -89.7935 11.7236 0.871906 0.31993 0.0528897 0.885132 0.281239 -22.4837 0.735438 0.567192 -2.47108 0.735426 0.567185 89.034 -39.991 -104.901 36.4846 -11.98 -22.0997 -5.6617 -28.4532 -15.3813 -12.5155 -1.11185 5.48141 -88.5686 -42.9767 79.6393 -35.2127 8.19155 -16.0251 -3.05751 1.76634 -14.2799 3.09314 0.170582 1.19963 15.4647 4.6372 -1.13552 -3.72182 4.83059 -2.71617 
5805.06 543.003 -5910.51 -99.793 -49.5124 -98.6661 179.702 16.4538 141.937 -1.36774 31.6913 -8.61941 74.7149 -40.9183 -21.0588 10.7064 8.63363 -32.838 173.031 4.99897 35.7408 -5.46533 1.70679 7.95949 61.2094 36.5991 22.9801 16.2627 -13.5099 26.6808 0.385154 7.58726 -89.8086 11.6984 0.855914 0.291741 0.0277231 0.867922 0.253782 -22.5089 0.728656 0.535503 -2.49627 0.728661 0.535499 89.2078 -39.7783 -104.668 36.5194 -12.0101 -22.1895 -5.64251 -28.421 -15.2015 -12.2034 -1.04141 5.07435 -88.6682 -43.2167 79.5317 -35.1462 8.05432 -16.0328 -3.04711 1.86982 -14.4249 4.13937 0.244086 1.60714 15.5187 4.68028 -0.942163 -3.57002 4.81574 -2.69887 
5805.39 543.75 -5910.9 -99.6384 -49.3802 -98.718 179.739 16.3133 142.056 -1.29913 31.8305 -8.73161 75.2957 -40.8484 -19.9576 10.3498 8.68824 -33.0047 173.062 5.40968 35.6881 -5.39093 1.13395 7.94686 61.1332 36.662 22.7936 16.5125 -13.4258 26.744 0.406193 7.58871 -89.7939 11.6954 0.904693 0.316012 0.0247153 0.917704 0.275889 -22.5121 0.767898 0.573312 -2.49942 0.767893 0.573304 89.1803 -39.8267 -104.7 36.4171 -12.088 -22.2043 -5.64815 -28.3603 -15.3727 -12.2372 -1.03665 4.9997 -88.63 -43.1153 79.5709 -35.2951 7.67521 -16.1328 -2.74639 2.84451 -14.2998 5.2014 0.388861 3.01087 15.5834 4.69821 -0.950158 -3.31464 4.82913 -2.73231 
5804.92 543.928 -5910.66 -99.4283 -49.2931 -98.6185 179.783 16.3367 142.058 -1.2767 31.6412 -8.76019 75.4685 -40.8047 -19.9718 9.94786 8.62668 -32.9229 173.227 5.5863 35.6369 -5.4243 1.35466 8.02603 61.018 36.5516 23.0924 16.2915 -13.6239 26.9562 0.401136 7.56644 -89.772 11.7397 0.904938 0.359259 0.0690239 0.919897 0.319071 -22.4676 0.755142 0.614631 -2.45497 0.755145 0.614632 88.9402 -40.1427 -105.014 36.4378 -12.0161 -21.9778 -5.72641 -27.3621 -15.462 -11.4097 -0.928888 4.62157 -88.5892 -43.1452 79.6439 -35.316 7.05121 -15.9734 -2.42049 3.7089 -14.2366 6.89244 0.650106 4.95718 15.5146 4.89911 -0.942766 -3.16458 5.01729 -2.65332 
5806.26 545.994 -5910.99 -99.9029 -49.368 -98.8403 179.693 16.0343 142.259 -1.6556 31.2972 -8.35484 76.0216 -40.7827 -19.9842 8.6329 8.44092 -32.7067 173.118 5.09911 35.8899 -5.51163 1.42179 7.75323 61.5579 36.7194 22.861 15.5907 -13.5189 26.0477 0.400868 7.62521 -89.8018 11.6225 0.890252 0.302632 -0.0482208 0.902726 0.263141 -22.585 0.758152 0.556216 -2.57234 0.758142 0.556201 88.9815 -40.0458 -104.974 36.5324 -11.8598 -22.0558 -5.89508 -27.6741 -15.4711 -11.759 -0.959769 4.64057 -88.5719 -43.1136 79.6645 -35.5605 7.95581 -16.2624 -2.55752 2.62732 -14.2516 2.28321 0.166213 2.02933 15.6595 4.78889 -0.895133 -3.19853 4.89857 -2.64003 
